<svg width="171" height="25" viewBox="0 0 171 25" fill="none" xmlns="http://www.w3.org/2000/svg">
<rect width="70" height="25" fill="#F1F1F1"/>
<path d="M11.684 17V8.6H14.012L17.372 14.084H16.148L19.412 8.6H21.74L21.764 17H19.184L19.16 12.488H19.568L17.336 16.244H16.088L13.76 12.488H14.264V17H11.684ZM29.3972 17.192C28.7172 17.192 28.0852 17.084 27.5012 16.868C26.9252 16.652 26.4252 16.348 26.0012 15.956C25.5772 15.556 25.2452 15.088 25.0052 14.552C24.7732 14.016 24.6572 13.432 24.6572 12.8C24.6572 12.16 24.7732 11.576 25.0052 11.048C25.2452 10.512 25.5772 10.048 26.0012 9.656C26.4252 9.256 26.9252 8.948 27.5012 8.732C28.0852 8.516 28.7172 8.408 29.3972 8.408C30.0852 8.408 30.7172 8.516 31.2932 8.732C31.8692 8.948 32.3692 9.256 32.7932 9.656C33.2172 10.048 33.5452 10.512 33.7772 11.048C34.0172 11.576 34.1372 12.16 34.1372 12.8C34.1372 13.432 34.0172 14.016 33.7772 14.552C33.5452 15.088 33.2172 15.556 32.7932 15.956C32.3692 16.348 31.8692 16.652 31.2932 16.868C30.7172 17.084 30.0852 17.192 29.3972 17.192ZM29.3972 14.9C29.6612 14.9 29.9052 14.852 30.1292 14.756C30.3612 14.66 30.5612 14.524 30.7292 14.348C30.9052 14.164 31.0412 13.944 31.1372 13.688C31.2332 13.424 31.2812 13.128 31.2812 12.8C31.2812 12.472 31.2332 12.18 31.1372 11.924C31.0412 11.66 30.9052 11.44 30.7292 11.264C30.5612 11.08 30.3612 10.94 30.1292 10.844C29.9052 10.748 29.6612 10.7 29.3972 10.7C29.1332 10.7 28.8852 10.748 28.6532 10.844C28.4292 10.94 28.2292 11.08 28.0532 11.264C27.8852 11.44 27.7532 11.66 27.6572 11.924C27.5612 12.18 27.5132 12.472 27.5132 12.8C27.5132 13.128 27.5612 13.424 27.6572 13.688C27.7532 13.944 27.8852 14.164 28.0532 14.348C28.2292 14.524 28.4292 14.66 28.6532 14.756C28.8852 14.852 29.1332 14.9 29.3972 14.9ZM37.0251 17V8.6H39.3531L43.6251 13.712H42.5451V8.6H45.3051V17H42.9771L38.7051 11.888H39.7851V17H37.0251ZM47.6176 17L51.2896 8.6H54.0736L57.7456 17H54.8176L52.1056 9.944H53.2096L50.4976 17H47.6176ZM49.8016 15.536L50.5216 13.496H54.3856L55.1056 15.536H49.8016Z" fill="#1E1E1E"/>
<rect x="70.5" y="0.5" width="100" height="24" stroke="#F1F1F1"/>
<path d="M80.384 17L82.424 7.28H83.18L85.232 17H84.572L84.068 14.312H81.548L81.032 17H80.384ZM81.644 13.832H83.984L82.808 8.072L81.644 13.832ZM89.8133 17V7.28H92.1653C92.7413 7.28 93.1813 7.388 93.4853 7.604C93.7973 7.812 94.0093 8.1 94.1213 8.468C94.2413 8.828 94.3013 9.232 94.3013 9.68C94.3013 10.04 94.2613 10.384 94.1813 10.712C94.1093 11.04 93.9693 11.32 93.7613 11.552C93.5613 11.776 93.2653 11.92 92.8733 11.984L94.4333 17H93.7853L92.2733 12.104H90.4613V17H89.8133ZM90.4613 11.6H92.1413C92.5573 11.6 92.8733 11.524 93.0893 11.372C93.3053 11.212 93.4533 10.988 93.5333 10.7C93.6213 10.412 93.6653 10.072 93.6653 9.68C93.6653 9.064 93.5613 8.596 93.3533 8.276C93.1533 7.956 92.7453 7.796 92.1293 7.796H90.4613V11.6ZM100.304 17V7.808H98.3595V7.28H102.848V7.808H100.952V17H100.304ZM114.806 17.12C114.294 17.12 113.87 17.016 113.534 16.808C113.206 16.6 112.954 16.308 112.778 15.932C112.61 15.556 112.506 15.112 112.466 14.6L113.03 14.42C113.086 14.844 113.17 15.22 113.282 15.548C113.402 15.876 113.582 16.132 113.822 16.316C114.062 16.492 114.394 16.58 114.818 16.58C115.298 16.58 115.674 16.46 115.946 16.22C116.226 15.98 116.366 15.58 116.366 15.02C116.366 14.596 116.254 14.216 116.03 13.88C115.814 13.536 115.506 13.168 115.106 12.776L113.33 11.012C113.034 10.708 112.818 10.404 112.682 10.1C112.546 9.796 112.478 9.484 112.478 9.164C112.478 8.524 112.674 8.032 113.066 7.688C113.466 7.344 113.982 7.172 114.614 7.172C114.942 7.172 115.238 7.216 115.502 7.304C115.766 7.384 115.994 7.52 116.186 7.712C116.386 7.896 116.542 8.144 116.654 8.456C116.766 8.768 116.838 9.152 116.87 9.608L116.318 9.74C116.286 9.284 116.21 8.904 116.09 8.6C115.97 8.296 115.794 8.072 115.562 7.928C115.33 7.776 115.018 7.7 114.626 7.7C114.186 7.7 113.818 7.812 113.522 8.036C113.226 8.26 113.078 8.62 113.078 9.116C113.078 9.364 113.126 9.604 113.222 9.836C113.326 10.068 113.514 10.32 113.786 10.592L115.538 12.32C115.93 12.704 116.266 13.116 116.546 13.556C116.834 13.988 116.978 14.464 116.978 14.984C116.978 15.472 116.886 15.876 116.702 16.196C116.518 16.508 116.262 16.74 115.934 16.892C115.606 17.044 115.23 17.12 114.806 17.12ZM122.872 17V7.808H120.928V7.28H125.416V7.808H123.52V17H122.872ZM132.16 17.132C131.528 17.132 131.036 17.028 130.684 16.82C130.332 16.604 130.084 16.316 129.94 15.956C129.804 15.588 129.736 15.176 129.736 14.72V7.28H130.384V14.732C130.384 15.084 130.432 15.404 130.528 15.692C130.632 15.972 130.812 16.192 131.068 16.352C131.332 16.512 131.696 16.592 132.16 16.592C132.6 16.592 132.948 16.512 133.204 16.352C133.468 16.184 133.656 15.96 133.768 15.68C133.88 15.4 133.936 15.084 133.936 14.732V7.28H134.572V14.72C134.572 15.176 134.496 15.588 134.344 15.956C134.192 16.316 133.94 16.604 133.588 16.82C133.244 17.028 132.768 17.132 132.16 17.132ZM139.555 17V7.28H141.679C142.327 7.28 142.831 7.404 143.191 7.652C143.551 7.9 143.803 8.236 143.947 8.66C144.091 9.084 144.163 9.556 144.163 10.076V14.108C144.163 14.66 144.091 15.156 143.947 15.596C143.803 16.028 143.555 16.372 143.203 16.628C142.859 16.876 142.371 17 141.739 17H139.555ZM140.203 16.484H141.703C142.231 16.484 142.623 16.372 142.879 16.148C143.135 15.924 143.303 15.628 143.383 15.26C143.463 14.884 143.503 14.476 143.503 14.036V10.124C143.503 9.652 143.455 9.244 143.359 8.9C143.263 8.548 143.083 8.28 142.819 8.096C142.555 7.904 142.175 7.808 141.679 7.808H140.203V16.484ZM149.066 17V7.28H149.714V17H149.066ZM157.023 17.132C156.391 17.132 155.899 17.008 155.547 16.76C155.203 16.504 154.963 16.16 154.827 15.728C154.691 15.288 154.623 14.792 154.623 14.24V9.992C154.623 9.44 154.695 8.952 154.839 8.528C154.983 8.104 155.227 7.772 155.571 7.532C155.923 7.292 156.407 7.172 157.023 7.172C157.639 7.172 158.119 7.292 158.463 7.532C158.815 7.772 159.063 8.104 159.207 8.528C159.351 8.952 159.423 9.44 159.423 9.992V14.252C159.423 14.804 159.355 15.296 159.219 15.728C159.083 16.16 158.839 16.504 158.487 16.76C158.143 17.008 157.655 17.132 157.023 17.132ZM157.023 16.592C157.487 16.592 157.843 16.5 158.091 16.316C158.347 16.132 158.523 15.876 158.619 15.548C158.715 15.212 158.763 14.824 158.763 14.384V9.896C158.763 9.456 158.715 9.072 158.619 8.744C158.523 8.416 158.351 8.164 158.103 7.988C157.855 7.804 157.495 7.712 157.023 7.712C156.559 7.712 156.199 7.804 155.943 7.988C155.695 8.164 155.523 8.416 155.427 8.744C155.331 9.072 155.283 9.456 155.283 9.896V14.384C155.283 14.824 155.331 15.212 155.427 15.548C155.523 15.876 155.695 16.132 155.943 16.316C156.199 16.5 156.559 16.592 157.023 16.592Z" fill="white"/>
<line x1="66" y1="11.5" x2="71" y2="11.5" stroke="#1E1E1E"/>
<line x1="71" y1="11.5" x2="76" y2="11.5" stroke="#F1F1F1"/>
</svg>
